# xmcd
#
# Track frame offsets:
#	150
#	21430
#	35893
#	54117
#	78233
#	100976
#	121569
#	148993
#	165126
#	187921
#	205840
#
# Disc length: 2955 seconds
# Revision: 0
# Processed by: cddbd v1.5.2PL0 Copyright (c) Steve Scherf et al.
# Submitted via: dBpowerAMP V12.0
#
DISCID=870b890b
DTITLE=Randy Volin - Detroit Thang
DYEAR=2014
DGENRE=Blues Rock
TTITLE0=When She Say's Jump
TTITLE1=Come Back Home
TTITLE2=Mr. Johnson
TTITLE3=It's Gonna Be Alright
TTITLE4=I Want Your Lovin'
TTITLE5=Mofocito
TTITLE6=Brand New Day
TTITLE7=Mulholland Drive
TTITLE8=Two Worlds Collide
TTITLE9=She's Fine
TTITLE10=Route 66
EXTD=
EXTT0=
EXTT1=
EXTT2=
EXTT3=
EXTT4=
EXTT5=
EXTT6=
EXTT7=
EXTT8=
EXTT9=
EXTT10=
PLAYORDER=
